<svg xmlns="http://www.w3.org/2000/svg" style="cursor: move;" width="1314" height="1326"><g transform="translate(-190.28992450134592,-338.7037204279816) scale(1.5157165665103982)"><path class="link" style="stroke-width: 0.184258px; stroke-opacity: 0.354343; stroke: rgb(80, 80, 80);" marker-end="" d="M541,358, 679,463"></path><path class="link" style="stroke-width: 0.237937px; stroke-opacity: 0.45757; stroke: rgb(80, 80, 80);" marker-end="" d="M541,358, 679,505"></path><path class="link" style="stroke-width: 0.0499229px; stroke-opacity: 0.0960056; stroke: rgb(80, 80, 80);" marker-end="" d="M541,358, 679,547"></path><path class="link" style="stroke-width: 0.0346282px; stroke-opacity: 0.0665928; stroke: rgb(80, 80, 80);" marker-end="" d="M541,358, 679,589"></path><path class="link" style="stroke-width: 0.0396326px; stroke-opacity: 0.0762166; stroke: rgb(80, 80, 80);" marker-end="" d="M541,358, 679,631"></path><path class="link" style="stroke-width: 0.209595px; stroke-opacity: 0.403067; stroke: rgb(80, 80, 80);" marker-end="" d="M541,358, 679,673"></path><path class="link" style="stroke-width: 0.316696px; stroke-opacity: 0.609031; stroke: rgb(80, 80, 80);" marker-end="" d="M541,358, 679,715"></path><path class="link" style="stroke-width: 0.422972px; stroke-opacity: 0.813408; stroke: rgb(80, 80, 80);" marker-end="" d="M541,358, 679,757"></path><path class="link" style="stroke-width: 0.367731px; stroke-opacity: 0.707175; stroke: rgb(80, 80, 80);" marker-end="" d="M541,358, 679,799"></path><path class="link" style="stroke-width: 0.419624px; stroke-opacity: 0.806969; stroke: rgb(80, 80, 80);" marker-end="" d="M541,358, 679,841"></path><path class="link" style="stroke-width: 0.491601px; stroke-opacity: 0.945387; stroke: rgb(80, 80, 80);" marker-end="" d="M541,358, 679,883"></path><path class="link" style="stroke-width: 0.513293px; stroke-opacity: 0.987102; stroke: rgb(80, 80, 80);" marker-end="" d="M541,400, 679,463"></path><path class="link" style="stroke-width: 0.196946px; stroke-opacity: 0.378743; stroke: rgb(80, 80, 80);" marker-end="" d="M541,400, 679,505"></path><path class="link" style="stroke-width: 0.474596px; stroke-opacity: 0.912685; stroke: rgb(80, 80, 80);" marker-end="" d="M541,400, 679,547"></path><path class="link" style="stroke-width: 0.0728875px; stroke-opacity: 0.140168; stroke: rgb(80, 80, 80);" marker-end="" d="M541,400, 679,589"></path><path class="link" style="stroke-width: 0.144609px; stroke-opacity: 0.278095; stroke: rgb(80, 80, 80);" marker-end="" d="M541,400, 679,631"></path><path class="link" style="stroke-width: 0.463438px; stroke-opacity: 0.891226; stroke: rgb(80, 80, 80);" marker-end="" d="M541,400, 679,673"></path><path class="link" style="stroke-width: 0.169133px; stroke-opacity: 0.325256; stroke: rgb(80, 80, 80);" marker-end="" d="M541,400, 679,715"></path><path class="link" style="stroke-width: 0.430783px; stroke-opacity: 0.828429; stroke: rgb(80, 80, 80);" marker-end="" d="M541,400, 679,757"></path><path class="link" style="stroke-width: 0.401601px; stroke-opacity: 0.772309; stroke: rgb(80, 80, 80);" marker-end="" d="M541,400, 679,799"></path><path class="link" style="stroke-width: 0.252791px; stroke-opacity: 0.486137; stroke: rgb(80, 80, 80);" marker-end="" d="M541,400, 679,841"></path><path class="link" style="stroke-width: 0.10667px; stroke-opacity: 0.205135; stroke: rgb(80, 80, 80);" marker-end="" d="M541,400, 679,883"></path><path class="link" style="stroke-width: 0.326842px; stroke-opacity: 0.628542; stroke: rgb(80, 80, 80);" marker-end="" d="M541,442, 679,463"></path><path class="link" style="stroke-width: 0.218426px; stroke-opacity: 0.42005; stroke: rgb(80, 80, 80);" marker-end="" d="M541,442, 679,505"></path><path class="link" style="stroke-width: 0.447549px; stroke-opacity: 0.860671; stroke: rgb(80, 80, 80);" marker-end="" d="M541,442, 679,547"></path><path class="link" style="stroke-width: 0.0384477px; stroke-opacity: 0.0739379; stroke: rgb(80, 80, 80);" marker-end="" d="M541,442, 679,589"></path><path class="link" style="stroke-width: 0.177575px; stroke-opacity: 0.34149; stroke: rgb(80, 80, 80);" marker-end="" d="M541,442, 679,631"></path><path class="link" style="stroke-width: 0.393077px; stroke-opacity: 0.755917; stroke: rgb(80, 80, 80);" marker-end="" d="M541,442, 679,673"></path><path class="link" style="stroke-width: 0.230287px; stroke-opacity: 0.442859; stroke: rgb(80, 80, 80);" marker-end="" d="M541,442, 679,715"></path><path class="link" style="stroke-width: 0.512446px; stroke-opacity: 0.985474; stroke: rgb(80, 80, 80);" marker-end="" d="M541,442, 679,757"></path><path class="link" style="stroke-width: 0.490412px; stroke-opacity: 0.943101; stroke: rgb(80, 80, 80);" marker-end="" d="M541,442, 679,799"></path><path class="link" style="stroke-width: 0.4643px; stroke-opacity: 0.892885; stroke: rgb(80, 80, 80);" marker-end="" d="M541,442, 679,841"></path><path class="link" style="stroke-width: 0.0879618px; stroke-opacity: 0.169157; stroke: rgb(80, 80, 80);" marker-end="" d="M541,442, 679,883"></path><path class="link" style="stroke-width: 0.325799px; stroke-opacity: 0.626537; stroke: rgb(80, 80, 80);" marker-end="" d="M541,484, 679,463"></path><path class="link" style="stroke-width: 0.379816px; stroke-opacity: 0.730415; stroke: rgb(80, 80, 80);" marker-end="" d="M541,484, 679,505"></path><path class="link" style="stroke-width: 0.3184px; stroke-opacity: 0.612307; stroke: rgb(80, 80, 80);" marker-end="" d="M541,484, 679,547"></path><path class="link" style="stroke-width: 0.219938px; stroke-opacity: 0.422957; stroke: rgb(80, 80, 80);" marker-end="" d="M541,484, 679,589"></path><path class="link" style="stroke-width: 0.0428034px; stroke-opacity: 0.0823142; stroke: rgb(80, 80, 80);" marker-end="" d="M541,484, 679,631"></path><path class="link" style="stroke-width: 0.427902px; stroke-opacity: 0.822888; stroke: rgb(80, 80, 80);" marker-end="" d="M541,484, 679,673"></path><path class="link" style="stroke-width: 0.159419px; stroke-opacity: 0.306575; stroke: rgb(80, 80, 80);" marker-end="" d="M541,484, 679,715"></path><path class="link" style="stroke-width: 0.458649px; stroke-opacity: 0.882018; stroke: rgb(80, 80, 80);" marker-end="" d="M541,484, 679,757"></path><path class="link" style="stroke-width: 0.149511px; stroke-opacity: 0.287522; stroke: rgb(80, 80, 80);" marker-end="" d="M541,484, 679,799"></path><path class="link" style="stroke-width: 0.0248814px; stroke-opacity: 0.0478488; stroke: rgb(80, 80, 80);" marker-end="" d="M541,484, 679,841"></path><path class="link" style="stroke-width: 0.176724px; stroke-opacity: 0.339854; stroke: rgb(80, 80, 80);" marker-end="" d="M541,484, 679,883"></path><path class="link" style="stroke-width: 0.354762px; stroke-opacity: 0.682235; stroke: rgb(80, 80, 80);" marker-end="" d="M541,526, 679,463"></path><path class="link" style="stroke-width: 0.0650392px; stroke-opacity: 0.125075; stroke: rgb(80, 80, 80);" marker-end="" d="M541,526, 679,505"></path><path class="link" style="stroke-width: 0.0305005px; stroke-opacity: 0.0586548; stroke: rgb(80, 80, 80);" marker-end="" d="M541,526, 679,547"></path><path class="link" style="stroke-width: 0.226095px; stroke-opacity: 0.434798; stroke: rgb(80, 80, 80);" marker-end="" d="M541,526, 679,589"></path><path class="link" style="stroke-width: 0.0742218px; stroke-opacity: 0.142734; stroke: rgb(80, 80, 80);" marker-end="" d="M541,526, 679,631"></path><path class="link" style="stroke-width: 0.453475px; stroke-opacity: 0.872068; stroke: rgb(80, 80, 80);" marker-end="" d="M541,526, 679,673"></path><path class="link" style="stroke-width: 0.0918562px; stroke-opacity: 0.176647; stroke: rgb(80, 80, 80);" marker-end="" d="M541,526, 679,715"></path><path class="link" style="stroke-width: 0.0792464px; stroke-opacity: 0.152397; stroke: rgb(80, 80, 80);" marker-end="" d="M541,526, 679,757"></path><path class="link" style="stroke-width: 0.297552px; stroke-opacity: 0.572215; stroke: rgb(80, 80, 80);" marker-end="" d="M541,526, 679,799"></path><path class="link" style="stroke-width: 0.0693854px; stroke-opacity: 0.133433; stroke: rgb(80, 80, 80);" marker-end="" d="M541,526, 679,841"></path><path class="link" style="stroke-width: 0.207246px; stroke-opacity: 0.398549; stroke: rgb(80, 80, 80);" marker-end="" d="M541,526, 679,883"></path><path class="link" style="stroke-width: 0.071069px; stroke-opacity: 0.136671; stroke: rgb(80, 80, 80);" marker-end="" d="M541,568, 679,463"></path><path class="link" style="stroke-width: 0.148862px; stroke-opacity: 0.286272; stroke: rgb(80, 80, 80);" marker-end="" d="M541,568, 679,505"></path><path class="link" style="stroke-width: 0.315149px; stroke-opacity: 0.606057; stroke: rgb(80, 80, 80);" marker-end="" d="M541,568, 679,547"></path><path class="link" style="stroke-width: 0.417156px; stroke-opacity: 0.802224; stroke: rgb(80, 80, 80);" marker-end="" d="M541,568, 679,589"></path><path class="link" style="stroke-width: 0.494574px; stroke-opacity: 0.951103; stroke: rgb(80, 80, 80);" marker-end="" d="M541,568, 679,631"></path><path class="link" style="stroke-width: 0.393199px; stroke-opacity: 0.756152; stroke: rgb(80, 80, 80);" marker-end="" d="M541,568, 679,673"></path><path class="link" style="stroke-width: 0.0235283px; stroke-opacity: 0.0452467; stroke: rgb(80, 80, 80);" marker-end="" d="M541,568, 679,715"></path><path class="link" style="stroke-width: 0.485761px; stroke-opacity: 0.934155; stroke: rgb(80, 80, 80);" marker-end="" d="M541,568, 679,757"></path><path class="link" style="stroke-width: 0.48933px; stroke-opacity: 0.941019; stroke: rgb(80, 80, 80);" marker-end="" d="M541,568, 679,799"></path><path class="link" style="stroke-width: 0.364749px; stroke-opacity: 0.70144; stroke: rgb(80, 80, 80);" marker-end="" d="M541,568, 679,841"></path><path class="link" style="stroke-width: 0.401576px; stroke-opacity: 0.772261; stroke: rgb(80, 80, 80);" marker-end="" d="M541,568, 679,883"></path><path class="link" style="stroke-width: 0.202915px; stroke-opacity: 0.390221; stroke: rgb(80, 80, 80);" marker-end="" d="M541,610, 679,463"></path><path class="link" style="stroke-width: 0.0302449px; stroke-opacity: 0.0581633; stroke: rgb(80, 80, 80);" marker-end="" d="M541,610, 679,505"></path><path class="link" style="stroke-width: 0.0922528px; stroke-opacity: 0.177409; stroke: rgb(80, 80, 80);" marker-end="" d="M541,610, 679,547"></path><path class="link" style="stroke-width: 0.245794px; stroke-opacity: 0.472681; stroke: rgb(80, 80, 80);" marker-end="" d="M541,610, 679,589"></path><path class="link" style="stroke-width: 0.442003px; stroke-opacity: 0.850005; stroke: rgb(80, 80, 80);" marker-end="" d="M541,610, 679,631"></path><path class="link" style="stroke-width: 0.110113px; stroke-opacity: 0.211757; stroke: rgb(80, 80, 80);" marker-end="" d="M541,610, 679,673"></path><path class="link" style="stroke-width: 0.329857px; stroke-opacity: 0.634341; stroke: rgb(80, 80, 80);" marker-end="" d="M541,610, 679,715"></path><path class="link" style="stroke-width: 0.13112px; stroke-opacity: 0.252154; stroke: rgb(80, 80, 80);" marker-end="" d="M541,610, 679,757"></path><path class="link" style="stroke-width: 0.268316px; stroke-opacity: 0.515992; stroke: rgb(80, 80, 80);" marker-end="" d="M541,610, 679,799"></path><path class="link" style="stroke-width: 0.148773px; stroke-opacity: 0.286103; stroke: rgb(80, 80, 80);" marker-end="" d="M541,610, 679,841"></path><path class="link" style="stroke-width: 0.268013px; stroke-opacity: 0.515409; stroke: rgb(80, 80, 80);" marker-end="" d="M541,610, 679,883"></path><path class="link" style="stroke-width: 0.043246px; stroke-opacity: 0.0831653; stroke: rgb(80, 80, 80);" marker-end="" d="M541,652, 679,463"></path><path class="link" style="stroke-width: 0.393546px; stroke-opacity: 0.756819; stroke: rgb(80, 80, 80);" marker-end="" d="M541,652, 679,505"></path><path class="link" style="stroke-width: 0.382262px; stroke-opacity: 0.735119; stroke: rgb(80, 80, 80);" marker-end="" d="M541,652, 679,547"></path><path class="link" style="stroke-width: 0.160209px; stroke-opacity: 0.308095; stroke: rgb(80, 80, 80);" marker-end="" d="M541,652, 679,589"></path><path class="link" style="stroke-width: 0.272544px; stroke-opacity: 0.524123; stroke: rgb(80, 80, 80);" marker-end="" d="M541,652, 679,631"></path><path class="link" style="stroke-width: 0.430015px; stroke-opacity: 0.826952; stroke: rgb(80, 80, 80);" marker-end="" d="M541,652, 679,673"></path><path class="link" style="stroke-width: 0.0256264px; stroke-opacity: 0.0492816; stroke: rgb(80, 80, 80);" marker-end="" d="M541,652, 679,715"></path><path class="link" style="stroke-width: 0.141191px; stroke-opacity: 0.271521; stroke: rgb(80, 80, 80);" marker-end="" d="M541,652, 679,757"></path><path class="link" style="stroke-width: 0.324154px; stroke-opacity: 0.623372; stroke: rgb(80, 80, 80);" marker-end="" d="M541,652, 679,799"></path><path class="link" style="stroke-width: 0.375688px; stroke-opacity: 0.722477; stroke: rgb(80, 80, 80);" marker-end="" d="M541,652, 679,841"></path><path class="link" style="stroke-width: 0.221706px; stroke-opacity: 0.426357; stroke: rgb(80, 80, 80);" marker-end="" d="M541,652, 679,883"></path><path class="link" style="stroke-width: 0.491547px; stroke-opacity: 0.945282; stroke: rgb(80, 80, 80);" marker-end="" d="M541,694, 679,463"></path><path class="link" style="stroke-width: 0.298107px; stroke-opacity: 0.573284; stroke: rgb(80, 80, 80);" marker-end="" d="M541,694, 679,505"></path><path class="link" style="stroke-width: 0.238268px; stroke-opacity: 0.458208; stroke: rgb(80, 80, 80);" marker-end="" d="M541,694, 679,547"></path><path class="link" style="stroke-width: 0.388536px; stroke-opacity: 0.747185; stroke: rgb(80, 80, 80);" marker-end="" d="M541,694, 679,589"></path><path class="link" style="stroke-width: 0.044474px; stroke-opacity: 0.0855268; stroke: rgb(80, 80, 80);" marker-end="" d="M541,694, 679,631"></path><path class="link" style="stroke-width: 0.0000971118px; stroke-opacity: 0.000186753; stroke: rgb(80, 80, 80);" marker-end="" d="M541,694, 679,673"></path><path class="link" style="stroke-width: 0.110399px; stroke-opacity: 0.212307; stroke: rgb(80, 80, 80);" marker-end="" d="M541,694, 679,715"></path><path class="link" style="stroke-width: 0.35143px; stroke-opacity: 0.675827; stroke: rgb(80, 80, 80);" marker-end="" d="M541,694, 679,757"></path><path class="link" style="stroke-width: 0.142081px; stroke-opacity: 0.273233; stroke: rgb(80, 80, 80);" marker-end="" d="M541,694, 679,799"></path><path class="link" style="stroke-width: 0.289182px; stroke-opacity: 0.556119; stroke: rgb(80, 80, 80);" marker-end="" d="M541,694, 679,841"></path><path class="link" style="stroke-width: 0.30303px; stroke-opacity: 0.58275; stroke: rgb(80, 80, 80);" marker-end="" d="M541,694, 679,883"></path><path class="link" style="stroke-width: 0.0945681px; stroke-opacity: 0.181862; stroke: rgb(80, 80, 80);" marker-end="" d="M541,736, 679,463"></path><path class="link" style="stroke-width: 0.0426813px; stroke-opacity: 0.0820794; stroke: rgb(80, 80, 80);" marker-end="" d="M541,736, 679,505"></path><path class="link" style="stroke-width: 0.392546px; stroke-opacity: 0.754896; stroke: rgb(80, 80, 80);" marker-end="" d="M541,736, 679,547"></path><path class="link" style="stroke-width: 0.267273px; stroke-opacity: 0.513986; stroke: rgb(80, 80, 80);" marker-end="" d="M541,736, 679,589"></path><path class="link" style="stroke-width: 0.464255px; stroke-opacity: 0.892798; stroke: rgb(80, 80, 80);" marker-end="" d="M541,736, 679,631"></path><path class="link" style="stroke-width: 0.32881px; stroke-opacity: 0.632327; stroke: rgb(80, 80, 80);" marker-end="" d="M541,736, 679,673"></path><path class="link" style="stroke-width: 0.084636px; stroke-opacity: 0.162762; stroke: rgb(80, 80, 80);" marker-end="" d="M541,736, 679,715"></path><path class="link" style="stroke-width: 0.189666px; stroke-opacity: 0.364742; stroke: rgb(80, 80, 80);" marker-end="" d="M541,736, 679,757"></path><path class="link" style="stroke-width: 0.457457px; stroke-opacity: 0.879724; stroke: rgb(80, 80, 80);" marker-end="" d="M541,736, 679,799"></path><path class="link" style="stroke-width: 0.474857px; stroke-opacity: 0.913187; stroke: rgb(80, 80, 80);" marker-end="" d="M541,736, 679,841"></path><path class="link" style="stroke-width: 0.221379px; stroke-opacity: 0.425728; stroke: rgb(80, 80, 80);" marker-end="" d="M541,736, 679,883"></path><path class="link" style="stroke-width: 0.088818px; stroke-opacity: 0.170804; stroke: rgb(80, 80, 80);" marker-end="" d="M541,778, 679,463"></path><path class="link" style="stroke-width: 0.0565921px; stroke-opacity: 0.108831; stroke: rgb(80, 80, 80);" marker-end="" d="M541,778, 679,505"></path><path class="link" style="stroke-width: 0.439102px; stroke-opacity: 0.844427; stroke: rgb(80, 80, 80);" marker-end="" d="M541,778, 679,547"></path><path class="link" style="stroke-width: 0.433448px; stroke-opacity: 0.833553; stroke: rgb(80, 80, 80);" marker-end="" d="M541,778, 679,589"></path><path class="link" style="stroke-width: 0.0195383px; stroke-opacity: 0.0375736; stroke: rgb(80, 80, 80);" marker-end="" d="M541,778, 679,631"></path><path class="link" style="stroke-width: 0.053246px; stroke-opacity: 0.102396; stroke: rgb(80, 80, 80);" marker-end="" d="M541,778, 679,673"></path><path class="link" style="stroke-width: 0.266607px; stroke-opacity: 0.512706; stroke: rgb(80, 80, 80);" marker-end="" d="M541,778, 679,715"></path><path class="link" style="stroke-width: 0.461466px; stroke-opacity: 0.887434; stroke: rgb(80, 80, 80);" marker-end="" d="M541,778, 679,757"></path><path class="link" style="stroke-width: 0.15275px; stroke-opacity: 0.29375; stroke: rgb(80, 80, 80);" marker-end="" d="M541,778, 679,799"></path><path class="link" style="stroke-width: 0.0673375px; stroke-opacity: 0.129495; stroke: rgb(80, 80, 80);" marker-end="" d="M541,778, 679,841"></path><path class="link" style="stroke-width: 0.0695156px; stroke-opacity: 0.133684; stroke: rgb(80, 80, 80);" marker-end="" d="M541,778, 679,883"></path><path class="link" style="stroke-width: 0.047554px; stroke-opacity: 0.0914499; stroke: rgb(80, 80, 80);" marker-end="" d="M541,820, 679,463"></path><path class="link" style="stroke-width: 0.179176px; stroke-opacity: 0.344569; stroke: rgb(80, 80, 80);" marker-end="" d="M541,820, 679,505"></path><path class="link" style="stroke-width: 0.207385px; stroke-opacity: 0.398817; stroke: rgb(80, 80, 80);" marker-end="" d="M541,820, 679,547"></path><path class="link" style="stroke-width: 0.511034px; stroke-opacity: 0.982758; stroke: rgb(80, 80, 80);" marker-end="" d="M541,820, 679,589"></path><path class="link" style="stroke-width: 0.478583px; stroke-opacity: 0.920352; stroke: rgb(80, 80, 80);" marker-end="" d="M541,820, 679,631"></path><path class="link" style="stroke-width: 0.518647px; stroke-opacity: 0.997398; stroke: rgb(80, 80, 80);" marker-end="" d="M541,820, 679,673"></path><path class="link" style="stroke-width: 0.0573643px; stroke-opacity: 0.110316; stroke: rgb(80, 80, 80);" marker-end="" d="M541,820, 679,715"></path><path class="link" style="stroke-width: 0.180112px; stroke-opacity: 0.346369; stroke: rgb(80, 80, 80);" marker-end="" d="M541,820, 679,757"></path><path class="link" style="stroke-width: 0.128054px; stroke-opacity: 0.246257; stroke: rgb(80, 80, 80);" marker-end="" d="M541,820, 679,799"></path><path class="link" style="stroke-width: 0.38364px; stroke-opacity: 0.737769; stroke: rgb(80, 80, 80);" marker-end="" d="M541,820, 679,841"></path><path class="link" style="stroke-width: 0.118893px; stroke-opacity: 0.22864; stroke: rgb(80, 80, 80);" marker-end="" d="M541,820, 679,883"></path><path class="link" style="stroke-width: 0.277256px; stroke-opacity: 0.533184; stroke: rgb(80, 80, 80);" marker-end="" d="M541,862, 679,463"></path><path class="link" style="stroke-width: 0.330632px; stroke-opacity: 0.635832; stroke: rgb(80, 80, 80);" marker-end="" d="M541,862, 679,505"></path><path class="link" style="stroke-width: 0.500622px; stroke-opacity: 0.962734; stroke: rgb(80, 80, 80);" marker-end="" d="M541,862, 679,547"></path><path class="link" style="stroke-width: 0.122265px; stroke-opacity: 0.235125; stroke: rgb(80, 80, 80);" marker-end="" d="M541,862, 679,589"></path><path class="link" style="stroke-width: 0.506727px; stroke-opacity: 0.974474; stroke: rgb(80, 80, 80);" marker-end="" d="M541,862, 679,631"></path><path class="link" style="stroke-width: 0.234428px; stroke-opacity: 0.450824; stroke: rgb(80, 80, 80);" marker-end="" d="M541,862, 679,673"></path><path class="link" style="stroke-width: 0.320893px; stroke-opacity: 0.617101; stroke: rgb(80, 80, 80);" marker-end="" d="M541,862, 679,715"></path><path class="link" style="stroke-width: 0.514482px; stroke-opacity: 0.989389; stroke: rgb(80, 80, 80);" marker-end="" d="M541,862, 679,757"></path><path class="link" style="stroke-width: 0.305489px; stroke-opacity: 0.58748; stroke: rgb(80, 80, 80);" marker-end="" d="M541,862, 679,799"></path><path class="link" style="stroke-width: 0.318415px; stroke-opacity: 0.612336; stroke: rgb(80, 80, 80);" marker-end="" d="M541,862, 679,841"></path><path class="link" style="stroke-width: 0.165768px; stroke-opacity: 0.318785; stroke: rgb(80, 80, 80);" marker-end="" d="M541,862, 679,883"></path><path class="link" style="stroke-width: 0.0550693px; stroke-opacity: 0.105902; stroke: rgb(80, 80, 80);" marker-end="" d="M541,904, 679,463"></path><path class="link" style="stroke-width: 0.282144px; stroke-opacity: 0.542585; stroke: rgb(80, 80, 80);" marker-end="" d="M541,904, 679,505"></path><path class="link" style="stroke-width: 0.345101px; stroke-opacity: 0.663657; stroke: rgb(80, 80, 80);" marker-end="" d="M541,904, 679,547"></path><path class="link" style="stroke-width: 0.0956361px; stroke-opacity: 0.183916; stroke: rgb(80, 80, 80);" marker-end="" d="M541,904, 679,589"></path><path class="link" style="stroke-width: 0.0291686px; stroke-opacity: 0.0560935; stroke: rgb(80, 80, 80);" marker-end="" d="M541,904, 679,631"></path><path class="link" style="stroke-width: 0.39275px; stroke-opacity: 0.755288; stroke: rgb(80, 80, 80);" marker-end="" d="M541,904, 679,673"></path><path class="link" style="stroke-width: 0.112735px; stroke-opacity: 0.216798; stroke: rgb(80, 80, 80);" marker-end="" d="M541,904, 679,715"></path><path class="link" style="stroke-width: 0.516648px; stroke-opacity: 0.993553; stroke: rgb(80, 80, 80);" marker-end="" d="M541,904, 679,757"></path><path class="link" style="stroke-width: 0.41635px; stroke-opacity: 0.800673; stroke: rgb(80, 80, 80);" marker-end="" d="M541,904, 679,799"></path><path class="link" style="stroke-width: 0.508915px; stroke-opacity: 0.978684; stroke: rgb(80, 80, 80);" marker-end="" d="M541,904, 679,841"></path><path class="link" style="stroke-width: 0.0913919px; stroke-opacity: 0.175754; stroke: rgb(80, 80, 80);" marker-end="" d="M541,904, 679,883"></path><path class="link" style="stroke-width: 0.299328px; stroke-opacity: 0.575632; stroke: rgb(80, 80, 80);" marker-end="" d="M541,946, 679,463"></path><path class="link" style="stroke-width: 0.423916px; stroke-opacity: 0.815223; stroke: rgb(80, 80, 80);" marker-end="" d="M541,946, 679,505"></path><path class="link" style="stroke-width: 0.0834487px; stroke-opacity: 0.160478; stroke: rgb(80, 80, 80);" marker-end="" d="M541,946, 679,547"></path><path class="link" style="stroke-width: 0.176796px; stroke-opacity: 0.339993; stroke: rgb(80, 80, 80);" marker-end="" d="M541,946, 679,589"></path><path class="link" style="stroke-width: 0.479858px; stroke-opacity: 0.922804; stroke: rgb(80, 80, 80);" marker-end="" d="M541,946, 679,631"></path><path class="link" style="stroke-width: 0.460314px; stroke-opacity: 0.88522; stroke: rgb(80, 80, 80);" marker-end="" d="M541,946, 679,673"></path><path class="link" style="stroke-width: 0.0674042px; stroke-opacity: 0.129623; stroke: rgb(80, 80, 80);" marker-end="" d="M541,946, 679,715"></path><path class="link" style="stroke-width: 0.464017px; stroke-opacity: 0.892341; stroke: rgb(80, 80, 80);" marker-end="" d="M541,946, 679,757"></path><path class="link" style="stroke-width: 0.299263px; stroke-opacity: 0.575506; stroke: rgb(80, 80, 80);" marker-end="" d="M541,946, 679,799"></path><path class="link" style="stroke-width: 0.403281px; stroke-opacity: 0.775541; stroke: rgb(80, 80, 80);" marker-end="" d="M541,946, 679,841"></path><path class="link" style="stroke-width: 0.0537195px; stroke-opacity: 0.103307; stroke: rgb(80, 80, 80);" marker-end="" d="M541,946, 679,883"></path><path class="link" style="stroke-width: 0.375247px; stroke-opacity: 0.721629; stroke: rgb(80, 80, 80);" marker-end="" d="M679,421, 817,589"></path><path class="link" style="stroke-width: 0.507453px; stroke-opacity: 0.975872; stroke: rgb(80, 80, 80);" marker-end="" d="M679,463, 817,589"></path><path class="link" style="stroke-width: 0.206357px; stroke-opacity: 0.39684; stroke: rgb(80, 80, 80);" marker-end="" d="M679,505, 817,589"></path><path class="link" style="stroke-width: 0.417835px; stroke-opacity: 0.803528; stroke: rgb(80, 80, 80);" marker-end="" d="M679,547, 817,589"></path><path class="link" style="stroke-width: 0.0767439px; stroke-opacity: 0.147584; stroke: rgb(80, 80, 80);" marker-end="" d="M679,589, 817,589"></path><path class="link" style="stroke-width: 0.256937px; stroke-opacity: 0.49411; stroke: rgb(80, 80, 80);" marker-end="" d="M679,631, 817,589"></path><path class="link" style="stroke-width: 0.0809487px; stroke-opacity: 0.155671; stroke: rgb(80, 80, 80);" marker-end="" d="M679,673, 817,589"></path><path class="link" style="stroke-width: 0.155062px; stroke-opacity: 0.298196; stroke: rgb(80, 80, 80);" marker-end="" d="M679,715, 817,589"></path><path class="link" style="stroke-width: 0.281314px; stroke-opacity: 0.540988; stroke: rgb(80, 80, 80);" marker-end="" d="M679,757, 817,589"></path><path class="link" style="stroke-width: 0.0396483px; stroke-opacity: 0.0762467; stroke: rgb(80, 80, 80);" marker-end="" d="M679,799, 817,589"></path><path class="link" style="stroke-width: 0.514178px; stroke-opacity: 0.988803; stroke: rgb(80, 80, 80);" marker-end="" d="M679,841, 817,589"></path><path class="link" style="stroke-width: 0.360458px; stroke-opacity: 0.693188; stroke: rgb(80, 80, 80);" marker-end="" d="M679,883, 817,589"></path><path class="link" style="stroke-width: 0.437162px; stroke-opacity: 0.840696; stroke: rgb(80, 80, 80);" marker-end="" d="M679,421, 817,631"></path><path class="link" style="stroke-width: 0.298644px; stroke-opacity: 0.574315; stroke: rgb(80, 80, 80);" marker-end="" d="M679,463, 817,631"></path><path class="link" style="stroke-width: 0.150809px; stroke-opacity: 0.290018; stroke: rgb(80, 80, 80);" marker-end="" d="M679,505, 817,631"></path><path class="link" style="stroke-width: 0.00689619px; stroke-opacity: 0.0132619; stroke: rgb(80, 80, 80);" marker-end="" d="M679,547, 817,631"></path><path class="link" style="stroke-width: 0.401184px; stroke-opacity: 0.771508; stroke: rgb(80, 80, 80);" marker-end="" d="M679,589, 817,631"></path><path class="link" style="stroke-width: 0.256288px; stroke-opacity: 0.492861; stroke: rgb(80, 80, 80);" marker-end="" d="M679,631, 817,631"></path><path class="link" style="stroke-width: 0.148296px; stroke-opacity: 0.285184; stroke: rgb(80, 80, 80);" marker-end="" d="M679,673, 817,631"></path><path class="link" style="stroke-width: 0.0876784px; stroke-opacity: 0.168612; stroke: rgb(80, 80, 80);" marker-end="" d="M679,715, 817,631"></path><path class="link" style="stroke-width: 0.413468px; stroke-opacity: 0.795131; stroke: rgb(80, 80, 80);" marker-end="" d="M679,757, 817,631"></path><path class="link" style="stroke-width: 0.492173px; stroke-opacity: 0.946486; stroke: rgb(80, 80, 80);" marker-end="" d="M679,799, 817,631"></path><path class="link" style="stroke-width: 0.493122px; stroke-opacity: 0.948311; stroke: rgb(80, 80, 80);" marker-end="" d="M679,841, 817,631"></path><path class="link" style="stroke-width: 0.082619px; stroke-opacity: 0.158883; stroke: rgb(80, 80, 80);" marker-end="" d="M679,883, 817,631"></path><path class="link" style="stroke-width: 0.187743px; stroke-opacity: 0.361044; stroke: rgb(80, 80, 80);" marker-end="" d="M679,421, 817,673"></path><path class="link" style="stroke-width: 0.49831px; stroke-opacity: 0.958288; stroke: rgb(80, 80, 80);" marker-end="" d="M679,463, 817,673"></path><path class="link" style="stroke-width: 0.364966px; stroke-opacity: 0.701858; stroke: rgb(80, 80, 80);" marker-end="" d="M679,505, 817,673"></path><path class="link" style="stroke-width: 0.0214875px; stroke-opacity: 0.0413221; stroke: rgb(80, 80, 80);" marker-end="" d="M679,547, 817,673"></path><path class="link" style="stroke-width: 0.0655094px; stroke-opacity: 0.12598; stroke: rgb(80, 80, 80);" marker-end="" d="M679,589, 817,673"></path><path class="link" style="stroke-width: 0.396931px; stroke-opacity: 0.763329; stroke: rgb(80, 80, 80);" marker-end="" d="M679,631, 817,673"></path><path class="link" style="stroke-width: 0.368819px; stroke-opacity: 0.709267; stroke: rgb(80, 80, 80);" marker-end="" d="M679,673, 817,673"></path><path class="link" style="stroke-width: 0.05905px; stroke-opacity: 0.113558; stroke: rgb(80, 80, 80);" marker-end="" d="M679,715, 817,673"></path><path class="link" style="stroke-width: 0.0995462px; stroke-opacity: 0.191435; stroke: rgb(80, 80, 80);" marker-end="" d="M679,757, 817,673"></path><path class="link" style="stroke-width: 0.000571565px; stroke-opacity: 0.00109916; stroke: rgb(80, 80, 80);" marker-end="" d="M679,799, 817,673"></path><path class="link" style="stroke-width: 0.0494924px; stroke-opacity: 0.0951776; stroke: rgb(80, 80, 80);" marker-end="" d="M679,841, 817,673"></path><path class="link" style="stroke-width: 0.183501px; stroke-opacity: 0.352887; stroke: rgb(80, 80, 80);" marker-end="" d="M679,883, 817,673"></path><path class="link" style="stroke-width: 0.117615px; stroke-opacity: 0.226183; stroke: rgb(80, 80, 80);" marker-end="" d="M679,421, 817,715"></path><path class="link" style="stroke-width: 0.258677px; stroke-opacity: 0.497456; stroke: rgb(80, 80, 80);" marker-end="" d="M679,463, 817,715"></path><path class="link" style="stroke-width: 0.0802524px; stroke-opacity: 0.154331; stroke: rgb(80, 80, 80);" marker-end="" d="M679,505, 817,715"></path><path class="link" style="stroke-width: 0.0455039px; stroke-opacity: 0.0875075; stroke: rgb(80, 80, 80);" marker-end="" d="M679,547, 817,715"></path><path class="link" style="stroke-width: 0.37698px; stroke-opacity: 0.724961; stroke: rgb(80, 80, 80);" marker-end="" d="M679,589, 817,715"></path><path class="link" style="stroke-width: 0.21731px; stroke-opacity: 0.417904; stroke: rgb(80, 80, 80);" marker-end="" d="M679,631, 817,715"></path><path class="link" style="stroke-width: 0.256838px; stroke-opacity: 0.493919; stroke: rgb(80, 80, 80);" marker-end="" d="M679,673, 817,715"></path><path class="link" style="stroke-width: 0.344228px; stroke-opacity: 0.661976; stroke: rgb(80, 80, 80);" marker-end="" d="M679,715, 817,715"></path><path class="link" style="stroke-width: 0.00452246px; stroke-opacity: 0.00869704; stroke: rgb(80, 80, 80);" marker-end="" d="M679,757, 817,715"></path><path class="link" style="stroke-width: 0.163039px; stroke-opacity: 0.313536; stroke: rgb(80, 80, 80);" marker-end="" d="M679,799, 817,715"></path><path class="link" style="stroke-width: 0.0181256px; stroke-opacity: 0.034857; stroke: rgb(80, 80, 80);" marker-end="" d="M679,841, 817,715"></path><path class="link" style="stroke-width: 0.0545325px; stroke-opacity: 0.10487; stroke: rgb(80, 80, 80);" marker-end="" d="M679,883, 817,715"></path><path class="link" style="stroke-width: 0.392718px; stroke-opacity: 0.755227; stroke: rgb(80, 80, 80);" marker-end="" d="M541,358, 679,421"></path><path class="link" style="stroke-width: 0.216887px; stroke-opacity: 0.41709; stroke: rgb(80, 80, 80);" marker-end="" d="M541,400, 679,421"></path><path class="link" style="stroke-width: 0.132579px; stroke-opacity: 0.25496; stroke: rgb(80, 80, 80);" marker-end="" d="M541,442, 679,421"></path><path class="link" style="stroke-width: 0.0384229px; stroke-opacity: 0.0738903; stroke: rgb(80, 80, 80);" marker-end="" d="M541,484, 679,421"></path><path class="link" style="stroke-width: 0.451566px; stroke-opacity: 0.868396; stroke: rgb(80, 80, 80);" marker-end="" d="M541,526, 679,421"></path><path class="link" style="stroke-width: 0.160096px; stroke-opacity: 0.307877; stroke: rgb(80, 80, 80);" marker-end="" d="M541,568, 679,421"></path><path class="link" style="stroke-width: 0.251976px; stroke-opacity: 0.484569; stroke: rgb(80, 80, 80);" marker-end="" d="M541,610, 679,421"></path><path class="link" style="stroke-width: 0.19651px; stroke-opacity: 0.377904; stroke: rgb(80, 80, 80);" marker-end="" d="M541,652, 679,421"></path><path class="link" style="stroke-width: 0.00972719px; stroke-opacity: 0.0187061; stroke: rgb(80, 80, 80);" marker-end="" d="M541,694, 679,421"></path><path class="link" style="stroke-width: 0.00672227px; stroke-opacity: 0.0129274; stroke: rgb(80, 80, 80);" marker-end="" d="M541,736, 679,421"></path><path class="link" style="stroke-width: 0.353462px; stroke-opacity: 0.679735; stroke: rgb(80, 80, 80);" marker-end="" d="M541,778, 679,421"></path><path class="link" style="stroke-width: 0.153651px; stroke-opacity: 0.295482; stroke: rgb(80, 80, 80);" marker-end="" d="M541,820, 679,421"></path><path class="link" style="stroke-width: 0.139328px; stroke-opacity: 0.267938; stroke: rgb(80, 80, 80);" marker-end="" d="M541,862, 679,421"></path><path class="link" style="stroke-width: 0.36678px; stroke-opacity: 0.705346; stroke: rgb(80, 80, 80);" marker-end="" d="M541,904, 679,421"></path><path class="link" style="stroke-width: 0.506258px; stroke-opacity: 0.973573; stroke: rgb(80, 80, 80);" marker-end="" d="M541,946, 679,421"></path><circle r="11" class="node" id="0_0" style="fill: rgb(255, 255, 255); stroke: rgb(51, 51, 51);" cx="541" cy="358"></circle><circle r="11" class="node" id="0_1" style="fill: rgb(255, 255, 255); stroke: rgb(51, 51, 51);" cx="541" cy="400"></circle><circle r="11" class="node" id="0_2" style="fill: rgb(255, 255, 255); stroke: rgb(51, 51, 51);" cx="541" cy="442"></circle><circle r="11" class="node" id="0_3" style="fill: rgb(255, 255, 255); stroke: rgb(51, 51, 51);" cx="541" cy="484"></circle><circle r="11" class="node" id="0_4" style="fill: rgb(255, 255, 255); stroke: rgb(51, 51, 51);" cx="541" cy="526"></circle><circle r="11" class="node" id="0_5" style="fill: rgb(255, 255, 255); stroke: rgb(51, 51, 51);" cx="541" cy="568"></circle><circle r="11" class="node" id="0_6" style="fill: rgb(255, 255, 255); stroke: rgb(51, 51, 51);" cx="541" cy="610"></circle><circle r="11" class="node" id="0_7" style="fill: rgb(255, 255, 255); stroke: rgb(51, 51, 51);" cx="541" cy="652"></circle><circle r="11" class="node" id="0_8" style="fill: rgb(255, 255, 255); stroke: rgb(51, 51, 51);" cx="541" cy="694"></circle><circle r="11" class="node" id="0_9" style="fill: rgb(255, 255, 255); stroke: rgb(51, 51, 51);" cx="541" cy="736"></circle><circle r="11" class="node" id="0_10" style="fill: rgb(255, 255, 255); stroke: rgb(51, 51, 51);" cx="541" cy="778"></circle><circle r="11" class="node" id="0_11" style="fill: rgb(255, 255, 255); stroke: rgb(51, 51, 51);" cx="541" cy="820"></circle><circle r="11" class="node" id="0_12" style="fill: rgb(255, 255, 255); stroke: rgb(51, 51, 51);" cx="541" cy="862"></circle><circle r="11" class="node" id="0_13" style="fill: rgb(255, 255, 255); stroke: rgb(51, 51, 51);" cx="541" cy="904"></circle><circle r="11" class="node" id="0_14" style="fill: rgb(255, 255, 255); stroke: rgb(51, 51, 51);" cx="541" cy="946"></circle><circle r="11" class="node" id="1_0" style="fill: rgb(255, 255, 255); stroke: rgb(51, 51, 51);" cx="679" cy="421"></circle><circle r="11" class="node" id="1_1" style="fill: rgb(255, 255, 255); stroke: rgb(51, 51, 51);" cx="679" cy="463"></circle><circle r="11" class="node" id="1_2" style="fill: rgb(255, 255, 255); stroke: rgb(51, 51, 51);" cx="679" cy="505"></circle><circle r="11" class="node" id="1_3" style="fill: rgb(255, 255, 255); stroke: rgb(51, 51, 51);" cx="679" cy="547"></circle><circle r="11" class="node" id="1_4" style="fill: rgb(255, 255, 255); stroke: rgb(51, 51, 51);" cx="679" cy="589"></circle><circle r="11" class="node" id="1_5" style="fill: rgb(255, 255, 255); stroke: rgb(51, 51, 51);" cx="679" cy="631"></circle><circle r="11" class="node" id="1_6" style="fill: rgb(255, 255, 255); stroke: rgb(51, 51, 51);" cx="679" cy="673"></circle><circle r="11" class="node" id="1_7" style="fill: rgb(255, 255, 255); stroke: rgb(51, 51, 51);" cx="679" cy="715"></circle><circle r="11" class="node" id="1_8" style="fill: rgb(255, 255, 255); stroke: rgb(51, 51, 51);" cx="679" cy="757"></circle><circle r="11" class="node" id="1_9" style="fill: rgb(255, 255, 255); stroke: rgb(51, 51, 51);" cx="679" cy="799"></circle><circle r="11" class="node" id="1_10" style="fill: rgb(255, 255, 255); stroke: rgb(51, 51, 51);" cx="679" cy="841"></circle><circle r="11" class="node" id="1_11" style="fill: rgb(255, 255, 255); stroke: rgb(51, 51, 51);" cx="679" cy="883"></circle><circle r="11" class="node" id="2_0" style="fill: rgb(255, 255, 255); stroke: rgb(51, 51, 51);" cx="817" cy="589"></circle><text class="text" dy=".35em" style="font-size: 12px;" x="506" y="988">Input Layer ∈ ℝ¹⁵</text><text class="text" dy=".35em" style="font-size: 12px;" x="644" y="988">Hidden Layer ∈ ℝ¹²</text><text class="text" dy=".35em" style="font-size: 12px;" x="782" y="988">Output Layer ∈ ℝ⁴</text><circle r="11" class="node" id="2_1" style="fill: rgb(255, 255, 255); stroke: rgb(51, 51, 51);" cx="817" cy="631"></circle><circle r="11" class="node" id="2_2" style="fill: rgb(255, 255, 255); stroke: rgb(51, 51, 51);" cx="817" cy="673"></circle><circle r="11" class="node" id="2_3" style="fill: rgb(255, 255, 255); stroke: rgb(51, 51, 51);" cx="817" cy="715"></circle></g><defs><marker id="arrow" viewBox="0 -5 10 10" markerWidth="7" markerHeight="7" orient="auto" refX="42.8"><path d="M0,-5L10,0L0,5" style="stroke: rgb(80, 80, 80); fill: none;"></path></marker></defs></svg>